<?xml version="1.0" encoding="utf-8"?>
<!-- Generator: Adobe Illustrator 23.0.1, SVG Export Plug-In . SVG Version: 6.00 Build 0)  -->
<svg version="1.1" id="Calque_1" xmlns="http://www.w3.org/2000/svg" xmlns:xlink="http://www.w3.org/1999/xlink" x="0px" y="0px"
	 viewBox="0 0 14 13" style="enable-background:new 0 0 14 13;" xml:space="preserve">
<style type="text/css">
	.st0{fill:#FFFFFF;}
</style>
<path id="Shape_244" class="st0" d="M11.1,4.3L8.7,1.2c0-0.1,0.1-0.2,0.1-0.3C8.8,0.4,8.4,0,7.9,0C7.4,0,7,0.4,7,0.8
	c0,0.5,0.4,0.9,0.9,0.9c0,0,0,0,0,0c0,0,0.1,0,0.1,0l2,2.6H4l2-2.6c0,0,0.1,0,0.1,0C6.6,1.7,7,1.3,7,0.9C7,0.4,6.6,0,6.1,0
	C5.6,0,5.2,0.4,5.3,0.9c0,0.1,0,0.2,0.1,0.3L2.9,4.3H0v1.7h0.9L1.8,13h10.5l0.9-6.9H14V4.3H11.1z M4.4,11.3H2.6V9.5h1.8V11.3z
	 M4.4,7.8H2.6V6.1h1.8V7.8z M7.9,11.3H6.1V9.5h1.8V11.3z M7.9,7.8H6.1V6.1h1.8V7.8z M11.4,11.3H9.6V9.5h1.8V11.3z M11.4,7.8H9.6V6.1
	h1.8V7.8z"/>
</svg>
