<?xml version="1.0" encoding="utf-8"?>
<!-- Generator: Adobe Illustrator 23.0.1, SVG Export Plug-In . SVG Version: 6.00 Build 0)  -->
<svg version="1.1" id="Calque_1" xmlns="http://www.w3.org/2000/svg" xmlns:xlink="http://www.w3.org/1999/xlink" x="0px" y="0px"
	 viewBox="0 0 22 18" style="enable-background:new 0 0 22 18;" xml:space="preserve">
<style type="text/css">
	.st0{fill:#FFFFFF;}
</style>
<path id="Volume_icon" class="st0" d="M18,17.2c-0.3,0-0.5-0.1-0.7-0.3c-0.4-0.4-0.4-1,0-1.4c0,0,0,0,0,0C21,12,21,6.1,17.4,2.5
	c0,0,0,0-0.1-0.1c-0.4-0.4-0.4-1,0-1.4c0,0,0,0,0,0c0.4-0.4,1-0.4,1.4,0c4.4,4.4,4.4,11.4,0.1,15.8c0,0,0,0.1-0.1,0.1
	C18.5,17.1,18.3,17.2,18,17.2z M14.6,15.4c-0.3,0-0.5-0.1-0.7-0.3c-0.4-0.4-0.4-1,0-1.4c0,0,0,0,0,0c2.6-2.6,2.7-6.9,0-9.5
	c0,0,0,0,0,0c-0.4-0.4-0.4-1,0-1.4c0,0,0,0,0,0c0.4-0.4,1-0.4,1.4,0c3.4,3.4,3.4,8.8,0.1,12.2c0,0,0,0-0.1,0.1
	C15.1,15.3,14.8,15.4,14.6,15.4L14.6,15.4z M11.1,13.6c-0.3,0-0.5-0.1-0.7-0.3c-0.4-0.4-0.4-1,0-1.4c0,0,0,0,0,0
	c1.6-1.6,1.6-4.3,0-5.9c0,0,0,0,0,0c-0.4-0.4-0.4-1,0-1.4c0,0,0,0,0,0c0.4-0.4,1-0.4,1.4,0c2.4,2.4,2.4,6.2,0,8.6c0,0,0,0,0,0
	C11.6,13.5,11.4,13.6,11.1,13.6L11.1,13.6z M8.1,0.3C8.6-0.2,9.1,0,9.1,0.7v16.6c0,0.7-0.4,0.9-0.9,0.4l-4.9-4.8H0V5.1h3.2L8.1,0.3z
	"/>
</svg>
