<?xml version="1.0" encoding="utf-8"?>
<!-- Generator: Adobe Illustrator 23.0.1, SVG Export Plug-In . SVG Version: 6.00 Build 0)  -->
<svg version="1.1" id="Calque_1" xmlns="http://www.w3.org/2000/svg" xmlns:xlink="http://www.w3.org/1999/xlink" x="0px" y="0px"
	 viewBox="0 0 22 18" style="enable-background:new 0 0 22 18;" xml:space="preserve">
<style type="text/css">
	.st0{fill:#FFFFFF;}
</style>
<path id="Volume_icon" class="st0" d="M8.1,0.3c0.5-0.5,1-0.3,1,0.4v16.6c0,0.7-0.4,0.9-0.9,0.4l-4.9-4.8H0V5.1h3.2L8.1,0.3z"/>
<path class="st0" d="M17.3,9l2.3-2.3c0.5-0.5,0.5-1.2,0-1.7c-0.5-0.5-1.2-0.5-1.7,0l-2.3,2.3L13.3,5c-0.5-0.5-1.2-0.5-1.7,0
	c-0.5,0.5-0.5,1.2,0,1.7L14,9l-2.3,2.3c-0.5,0.5-0.5,1.2,0,1.7c0.5,0.5,1.2,0.5,1.7,0l2.3-2.3l2.3,2.3c0.5,0.5,1.2,0.5,1.7,0
	c0.5-0.5,0.5-1.2,0-1.7L17.3,9z"/>
</svg>
